<svg width="180" height="65" viewBox="0 0 180 65" fill="none" xmlns="http://www.w3.org/2000/svg">
<path d="M73.144 39.272V41.048H68.584V56H66.4V41.048H61.816V39.272H73.144ZM81.5684 56.216C80.3364 56.216 79.2164 55.936 78.2084 55.376C77.2164 54.816 76.4324 54.024 75.8564 53C75.2964 51.96 75.0164 50.76 75.0164 49.4C75.0164 48.056 75.3044 46.872 75.8804 45.848C76.4724 44.808 77.2724 44.016 78.2804 43.472C79.2884 42.912 80.4164 42.632 81.6644 42.632C82.9124 42.632 84.0404 42.912 85.0484 43.472C86.0564 44.016 86.8484 44.8 87.4244 45.824C88.0164 46.848 88.3124 48.04 88.3124 49.4C88.3124 50.76 88.0084 51.96 87.4004 53C86.8084 54.024 86.0004 54.816 84.9764 55.376C83.9524 55.936 82.8164 56.216 81.5684 56.216ZM81.5684 54.296C82.3524 54.296 83.0884 54.112 83.7764 53.744C84.4644 53.376 85.0164 52.824 85.4324 52.088C85.8644 51.352 86.0804 50.456 86.0804 49.4C86.0804 48.344 85.8724 47.448 85.4564 46.712C85.0404 45.976 84.4964 45.432 83.8244 45.08C83.1524 44.712 82.4244 44.528 81.6404 44.528C80.8404 44.528 80.1044 44.712 79.4324 45.08C78.7764 45.432 78.2484 45.976 77.8484 46.712C77.4484 47.448 77.2484 48.344 77.2484 49.4C77.2484 50.472 77.4404 51.376 77.8244 52.112C78.2244 52.848 78.7524 53.4 79.4084 53.768C80.0644 54.12 80.7844 54.296 81.5684 54.296ZM90.3679 49.376C90.3679 48.032 90.6399 46.856 91.1839 45.848C91.7279 44.824 92.4719 44.032 93.4159 43.472C94.3759 42.912 95.4479 42.632 96.6319 42.632C97.6559 42.632 98.6079 42.872 99.4879 43.352C100.368 43.816 101.04 44.432 101.504 45.2V38.24H103.712V56H101.504V53.528C101.072 54.312 100.432 54.96 99.5839 55.472C98.7359 55.968 97.7439 56.216 96.6079 56.216C95.4399 56.216 94.3759 55.928 93.4159 55.352C92.4719 54.776 91.7279 53.968 91.1839 52.928C90.6399 51.888 90.3679 50.704 90.3679 49.376ZM101.504 49.4C101.504 48.408 101.304 47.544 100.904 46.808C100.504 46.072 99.9599 45.512 99.2719 45.128C98.5999 44.728 97.8559 44.528 97.0399 44.528C96.2239 44.528 95.4799 44.72 94.8079 45.104C94.1359 45.488 93.5999 46.048 93.1999 46.784C92.7999 47.52 92.5999 48.384 92.5999 49.376C92.5999 50.384 92.7999 51.264 93.1999 52.016C93.5999 52.752 94.1359 53.32 94.8079 53.72C95.4799 54.104 96.2239 54.296 97.0399 54.296C97.8559 54.296 98.5999 54.104 99.2719 53.72C99.9599 53.32 100.504 52.752 100.904 52.016C101.304 51.264 101.504 50.392 101.504 49.4ZM113.139 56.216C111.907 56.216 110.787 55.936 109.779 55.376C108.787 54.816 108.003 54.024 107.427 53C106.867 51.96 106.587 50.76 106.587 49.4C106.587 48.056 106.875 46.872 107.451 45.848C108.043 44.808 108.843 44.016 109.851 43.472C110.859 42.912 111.987 42.632 113.235 42.632C114.483 42.632 115.611 42.912 116.619 43.472C117.627 44.016 118.419 44.8 118.995 45.824C119.587 46.848 119.883 48.04 119.883 49.4C119.883 50.76 119.579 51.96 118.971 53C118.379 54.024 117.571 54.816 116.547 55.376C115.523 55.936 114.387 56.216 113.139 56.216ZM113.139 54.296C113.923 54.296 114.659 54.112 115.347 53.744C116.035 53.376 116.587 52.824 117.003 52.088C117.435 51.352 117.651 50.456 117.651 49.4C117.651 48.344 117.443 47.448 117.027 46.712C116.611 45.976 116.067 45.432 115.395 45.08C114.723 44.712 113.995 44.528 113.211 44.528C112.411 44.528 111.675 44.712 111.003 45.08C110.347 45.432 109.819 45.976 109.419 46.712C109.019 47.448 108.819 48.344 108.819 49.4C108.819 50.472 109.011 51.376 109.395 52.112C109.795 52.848 110.323 53.4 110.979 53.768C111.635 54.12 112.355 54.296 113.139 54.296ZM132.642 52.28H125.346L124.002 56H121.698L127.746 39.368H130.266L136.29 56H133.986L132.642 52.28ZM132.018 50.504L128.994 42.056L125.97 50.504H132.018ZM141.11 45.272C141.542 44.52 142.182 43.896 143.03 43.4C143.894 42.888 144.894 42.632 146.03 42.632C147.198 42.632 148.254 42.912 149.198 43.472C150.158 44.032 150.91 44.824 151.454 45.848C151.998 46.856 152.27 48.032 152.27 49.376C152.27 50.704 151.998 51.888 151.454 52.928C150.91 53.968 150.158 54.776 149.198 55.352C148.254 55.928 147.198 56.216 146.03 56.216C144.91 56.216 143.918 55.968 143.054 55.472C142.206 54.96 141.558 54.328 141.11 53.576V62.24H138.926V42.848H141.11V45.272ZM150.038 49.376C150.038 48.384 149.838 47.52 149.438 46.784C149.038 46.048 148.494 45.488 147.806 45.104C147.134 44.72 146.39 44.528 145.574 44.528C144.774 44.528 144.03 44.728 143.342 45.128C142.67 45.512 142.126 46.08 141.71 46.832C141.31 47.568 141.11 48.424 141.11 49.4C141.11 50.392 141.31 51.264 141.71 52.016C142.126 52.752 142.67 53.32 143.342 53.72C144.03 54.104 144.774 54.296 145.574 54.296C146.39 54.296 147.134 54.104 147.806 53.72C148.494 53.32 149.038 52.752 149.438 52.016C149.838 51.264 150.038 50.384 150.038 49.376ZM157.329 45.272C157.761 44.52 158.401 43.896 159.249 43.4C160.113 42.888 161.113 42.632 162.249 42.632C163.417 42.632 164.473 42.912 165.417 43.472C166.377 44.032 167.129 44.824 167.673 45.848C168.217 46.856 168.489 48.032 168.489 49.376C168.489 50.704 168.217 51.888 167.673 52.928C167.129 53.968 166.377 54.776 165.417 55.352C164.473 55.928 163.417 56.216 162.249 56.216C161.129 56.216 160.137 55.968 159.273 55.472C158.425 54.96 157.777 54.328 157.329 53.576V62.24H155.145V42.848H157.329V45.272ZM166.257 49.376C166.257 48.384 166.057 47.52 165.657 46.784C165.257 46.048 164.713 45.488 164.025 45.104C163.353 44.72 162.609 44.528 161.793 44.528C160.993 44.528 160.249 44.728 159.561 45.128C158.889 45.512 158.345 46.08 157.929 46.832C157.529 47.568 157.329 48.424 157.329 49.4C157.329 50.392 157.529 51.264 157.929 52.016C158.345 52.752 158.889 53.32 159.561 53.72C160.249 54.104 160.993 54.296 161.793 54.296C162.609 54.296 163.353 54.104 164.025 53.72C164.713 53.32 165.257 52.752 165.657 52.016C166.057 51.264 166.257 50.384 166.257 49.376Z" fill="white"/>
<circle cx="24.129" cy="40.0968" r="21.5484" fill="#33CC95"/>
<path d="M24.1936 43.9517L12.9839 32.742L9.16669 36.5323L24.1936 51.5592L56.4516 19.3011L52.6613 15.5108L24.1936 43.9517Z" fill="#FFF5F5"/>
</svg>
