<svg width="449" height="167" viewBox="0 0 449 167" fill="none" xmlns="http://www.w3.org/2000/svg">
<path d="M176.117 95.8888V99.4408H166.997V129.345H162.629V99.4408H153.461V95.8888H176.117ZM192.966 129.777C190.502 129.777 188.262 129.217 186.246 128.097C184.262 126.977 182.694 125.393 181.542 123.345C180.422 121.265 179.862 118.865 179.862 116.145C179.862 113.457 180.438 111.089 181.59 109.041C182.774 106.961 184.374 105.377 186.39 104.289C188.406 103.169 190.662 102.609 193.158 102.609C195.654 102.609 197.91 103.169 199.926 104.289C201.942 105.377 203.526 106.945 204.678 108.993C205.862 111.041 206.454 113.425 206.454 116.145C206.454 118.865 205.846 121.265 204.63 123.345C203.446 125.393 201.83 126.977 199.782 128.097C197.734 129.217 195.462 129.777 192.966 129.777ZM192.966 125.937C194.534 125.937 196.006 125.569 197.382 124.833C198.758 124.097 199.862 122.993 200.694 121.521C201.558 120.049 201.99 118.257 201.99 116.145C201.99 114.033 201.574 112.241 200.742 110.769C199.91 109.297 198.822 108.209 197.478 107.505C196.134 106.769 194.678 106.401 193.11 106.401C191.51 106.401 190.038 106.769 188.694 107.505C187.382 108.209 186.326 109.297 185.526 110.769C184.726 112.241 184.326 114.033 184.326 116.145C184.326 118.289 184.71 120.097 185.478 121.569C186.278 123.041 187.334 124.145 188.646 124.881C189.958 125.585 191.398 125.937 192.966 125.937ZM210.565 116.097C210.565 113.409 211.109 111.057 212.197 109.041C213.285 106.993 214.773 105.409 216.661 104.289C218.581 103.169 220.725 102.609 223.093 102.609C225.141 102.609 227.045 103.089 228.805 104.049C230.565 104.977 231.909 106.209 232.837 107.745V93.8248H237.253V129.345H232.837V124.401C231.973 125.969 230.693 127.265 228.997 128.289C227.301 129.281 225.317 129.777 223.045 129.777C220.709 129.777 218.581 129.201 216.661 128.049C214.773 126.897 213.285 125.281 212.197 123.201C211.109 121.121 210.565 118.753 210.565 116.097ZM232.837 116.145C232.837 114.161 232.437 112.433 231.637 110.961C230.837 109.489 229.749 108.369 228.373 107.601C227.029 106.801 225.541 106.401 223.909 106.401C222.277 106.401 220.789 106.785 219.445 107.553C218.101 108.321 217.029 109.441 216.229 110.913C215.429 112.385 215.029 114.113 215.029 116.097C215.029 118.113 215.429 119.873 216.229 121.377C217.029 122.849 218.101 123.985 219.445 124.785C220.789 125.553 222.277 125.937 223.909 125.937C225.541 125.937 227.029 125.553 228.373 124.785C229.749 123.985 230.837 122.849 231.637 121.377C232.437 119.873 232.837 118.129 232.837 116.145ZM256.106 129.777C253.642 129.777 251.402 129.217 249.386 128.097C247.402 126.977 245.834 125.393 244.682 123.345C243.562 121.265 243.002 118.865 243.002 116.145C243.002 113.457 243.578 111.089 244.73 109.041C245.914 106.961 247.514 105.377 249.53 104.289C251.546 103.169 253.802 102.609 256.298 102.609C258.794 102.609 261.05 103.169 263.066 104.289C265.082 105.377 266.666 106.945 267.818 108.993C269.002 111.041 269.594 113.425 269.594 116.145C269.594 118.865 268.986 121.265 267.77 123.345C266.586 125.393 264.97 126.977 262.922 128.097C260.874 129.217 258.602 129.777 256.106 129.777ZM256.106 125.937C257.674 125.937 259.146 125.569 260.522 124.833C261.898 124.097 263.002 122.993 263.834 121.521C264.698 120.049 265.13 118.257 265.13 116.145C265.13 114.033 264.714 112.241 263.882 110.769C263.05 109.297 261.962 108.209 260.618 107.505C259.274 106.769 257.818 106.401 256.25 106.401C254.65 106.401 253.178 106.769 251.834 107.505C250.522 108.209 249.466 109.297 248.666 110.769C247.866 112.241 247.466 114.033 247.466 116.145C247.466 118.289 247.85 120.097 248.618 121.569C249.418 123.041 250.474 124.145 251.786 124.881C253.098 125.585 254.538 125.937 256.106 125.937ZM295.114 121.905H280.522L277.834 129.345H273.226L285.322 96.0808H290.362L302.41 129.345H297.802L295.114 121.905ZM293.866 118.353L287.818 101.457L281.77 118.353H293.866ZM312.049 107.889C312.913 106.385 314.193 105.137 315.889 104.145C317.617 103.121 319.617 102.609 321.889 102.609C324.225 102.609 326.337 103.169 328.225 104.289C330.145 105.409 331.649 106.993 332.737 109.041C333.825 111.057 334.369 113.409 334.369 116.097C334.369 118.753 333.825 121.121 332.737 123.201C331.649 125.281 330.145 126.897 328.225 128.049C326.337 129.201 324.225 129.777 321.889 129.777C319.649 129.777 317.665 129.281 315.937 128.289C314.241 127.265 312.945 126.001 312.049 124.497V141.825H307.681V103.041H312.049V107.889ZM329.905 116.097C329.905 114.113 329.505 112.385 328.705 110.913C327.905 109.441 326.817 108.321 325.441 107.553C324.097 106.785 322.609 106.401 320.977 106.401C319.377 106.401 317.889 106.801 316.513 107.601C315.169 108.369 314.081 109.505 313.249 111.009C312.449 112.481 312.049 114.193 312.049 116.145C312.049 118.129 312.449 119.873 313.249 121.377C314.081 122.849 315.169 123.985 316.513 124.785C317.889 125.553 319.377 125.937 320.977 125.937C322.609 125.937 324.097 125.553 325.441 124.785C326.817 123.985 327.905 122.849 328.705 121.377C329.505 119.873 329.905 118.113 329.905 116.097ZM344.487 107.889C345.351 106.385 346.631 105.137 348.327 104.145C350.055 103.121 352.055 102.609 354.327 102.609C356.663 102.609 358.775 103.169 360.663 104.289C362.583 105.409 364.087 106.993 365.175 109.041C366.263 111.057 366.807 113.409 366.807 116.097C366.807 118.753 366.263 121.121 365.175 123.201C364.087 125.281 362.583 126.897 360.663 128.049C358.775 129.201 356.663 129.777 354.327 129.777C352.087 129.777 350.103 129.281 348.375 128.289C346.679 127.265 345.383 126.001 344.487 124.497V141.825H340.119V103.041H344.487V107.889ZM362.343 116.097C362.343 114.113 361.943 112.385 361.143 110.913C360.343 109.441 359.255 108.321 357.879 107.553C356.535 106.785 355.047 106.401 353.415 106.401C351.815 106.401 350.327 106.801 348.951 107.601C347.607 108.369 346.519 109.505 345.687 111.009C344.887 112.481 344.487 114.193 344.487 116.145C344.487 118.129 344.887 119.873 345.687 121.377C346.519 122.849 347.607 123.985 348.951 124.785C350.327 125.553 351.815 125.937 353.415 125.937C355.047 125.937 356.535 125.553 357.879 124.785C359.255 123.985 360.343 122.849 361.143 121.377C361.943 119.873 362.343 118.113 362.343 116.097Z" fill="#212121"/>
<ellipse cx="60.0571" cy="102.461" rx="53.634" ry="55.7359" fill="#219653"/>
<path d="M60.2177 112.432L32.3168 83.4372L22.8158 93.241L60.2177 132.109L140.508 48.6718L131.074 38.8679L60.2177 112.432Z" fill="#212121"/>
</svg>
